# xmcd
#
# Track frame offsets:
#	150
#	13312
#	24502
#	36745
#	47462
#	56565
#	68095
#	76550
#	88907
#	97117
#	110202
#	120310
#
# Disc length: 1777 seconds
#
# Revision: 0
# Processed by: cddbd v1.4PL0 Copyright (c) Steve Scherf et al.
# Submitted via: EasyCDDAExtractor 4.6.9.1
#
DISCID=9d06ef0c
DTITLE=Jerry Lee Lewis - Greatest Hits - Finest Performances
DYEAR=1995
DGENRE=Country
TTITLE0=Whole Lotta Shakin' Going On
TTITLE1=Little Queenie
TTITLE2=Breathless
TTITLE3=Teen Age Letter
TTITLE4=Lewis Boogie
TTITLE5=I Can't Seem To Say Goodbye
TTITLE6=Great Balls Of Fire
TTITLE7=Crazy Arms
TTITLE8=End Of The Road
TTITLE9=It'll Be Me
TTITLE10=Move On Down The Line
TTITLE11=You Win Again
EXTD=
EXTT0=
EXTT1=
EXTT2=
EXTT3=
EXTT4=
EXTT5=
EXTT6=
EXTT7=
EXTT8=
EXTT9=
EXTT10=
EXTT11=
PLAYORDER=
